<?xml version="1.0" encoding="UTF-8" standalone="no"?>
<!DOCTYPE svg PUBLIC "-//W3C//DTD SVG 20010904//EN"
              "http://www.w3.org/TR/2001/REC-SVG-20010904/DTD/svg10.dtd">

<svg xmlns="http://www.w3.org/2000/svg"
     width="7.16667in" height="7.16667in"
     viewBox="0 0 516 516">
  <path id="Selection"
        fill="none" stroke="black" stroke-width="1"
        d="M 516.00,0.00
           C 516.00,0.00 516.00,516.00 516.00,516.00
             516.00,516.00 0.00,516.00 0.00,516.00
             0.00,516.00 0.00,0.00 0.00,0.00
             0.00,0.00 516.00,0.00 516.00,0.00 Z
           M 286.24,103.00
           C 283.33,79.00 226.00,46.00 216.00,46.00
             215.99,46.01 216.01,257.02 216.01,257.01
             251.00,262.63 278.38,287.25 287.00,310.00
             287.00,310.00 287.94,109.57 286.24,103.00 Z
           M 255.00,307.50
           C 269.00,320.00 265.50,334.00 259.00,343.75
             237.75,364.00 213.80,388.21 138.00,400.98
             138.00,400.99 137.99,118.00 137.99,118.00
             137.99,118.00 194.01,118.02 194.01,118.02
             194.01,118.02 194.38,277.82 194.38,277.81
             196.20,279.93 235.25,291.25 255.00,307.50 Z
           M 167.00,424.00
           C 167.00,424.00 383.00,424.00 383.00,424.00
             383.00,424.00 383.00,135.03 383.00,135.03
             383.00,135.03 308.97,135.09 308.97,135.09
             308.97,135.09 309.00,319.03 309.00,319.03
             302.36,372.73 202.91,414.73 167.00,424.00 Z" />
</svg>
